<svg id="Capa_1" data-name="Capa 1" xmlns="http://www.w3.org/2000/svg" viewBox="0 0 713.99 617.43"><defs><style>.cls-1{fill:#fff;}.cls-2{fill:#f94a19;}.cls-3{fill:none;}</style></defs><path d="M696.13,414.54H635.7a18.89,18.89,0,0,0,2-5.94l5-30.36.82.05c.28,0,.66,0,.94,0a19.5,19.5,0,0,0,18.49-12.78l.62,0,1.1,0a19.63,19.63,0,0,0,15.21-7.06h.54a19.81,19.81,0,0,0,15-6.79l1.87-2.16a19.24,19.24,0,0,0-2.93-38.31H688a20.54,20.54,0,0,0-4.31.46,19.73,19.73,0,0,0-7.36-3.28,19.25,19.25,0,0,0-9.28-10.21l34-37.08a17.86,17.86,0,0,0-13.16-29.93H662.1A17.84,17.84,0,0,0,649,237l-3.36,3.64a17.87,17.87,0,0,0-15.74-9.41H613.54a19.76,19.76,0,0,0-12.72-5.09h-.51a19.84,19.84,0,0,0-13.29,5.1H521.54l6.25-22.16a20,20,0,0,0,0-11.11l20.89-74a56.92,56.92,0,0,0-39.33-70.24L326.66,2.19a58.33,58.33,0,0,0-72,40.29L248.1,65.82a20,20,0,0,0-4.72,8.32L239,89.56a19.91,19.91,0,0,0-.33,9.59L237.33,104a20,20,0,0,0-4.73,8.32l-9.32,33a20.15,20.15,0,0,0-.58,8.19,19.92,19.92,0,0,0-3.77,7.23l-9.32,33a20.12,20.12,0,0,0-.34,9.62l-2.33,8.27L49.73,217.54a17.82,17.82,0,0,0-16.1,24c-.17.35-.33.71-.47,1.08a17.87,17.87,0,0,0,4.5,19.62l2.39,2.21L22.86,308.28a17.88,17.88,0,0,0-1.18,7.38A19,19,0,0,0,16,337.93a17.84,17.84,0,0,0-.86,26.72l1.72,1.62L1.2,406.78a17.86,17.86,0,0,0,16.66,24.3h72a17.89,17.89,0,0,0,6.36-1.17,17.93,17.93,0,0,0,6.36,1.17h25.07a17.82,17.82,0,0,0,11.87-4.52,18.13,18.13,0,0,0,5.82,3.45l-17.4,61.66a58.57,58.57,0,0,0,40.38,72.12l182.54,51.5a56.55,56.55,0,0,0,15.39,2.14A57.17,57.17,0,0,0,421.1,576l33.59-119.06,241.93-6.65a17.86,17.86,0,0,0-.49-35.72Z"/><rect class="cls-1" x="500.07" y="89.66" width="4.77" height="13.03" rx="0.32" transform="translate(273.45 553.63) rotate(-74.24)"/><path class="cls-1" d="M510.56,98.46a1,1,0,0,0-.62-1.33l-.6,2.14A1,1,0,0,0,510.56,98.46Z"/><path class="cls-1" d="M509.24,95l-11.93-3.36a1,1,0,0,0-1.18.65l-1.12,4h0a1,1,0,0,0,.66,1.18l11.93,3.36a1,1,0,0,0,1.17-.65h0l1.13-4A1,1,0,0,0,509.24,95Zm-.77,5.07a.65.65,0,0,1-.79.44l-11.92-3.37a.63.63,0,0,1-.44-.78l1.12-4a.64.64,0,0,1,.78-.44l11.93,3.37a.62.62,0,0,1,.44.78Z"/><path class="cls-1" d="M487.09,93.23l.81,1.64,1.54-1a2,2,0,0,0-1.05-.76A2.09,2.09,0,0,0,487.09,93.23Z"/><path class="cls-1" d="M490.41,93.29l.68-.43a3.91,3.91,0,0,0-2.17-1.59,4,4,0,0,0-2.69.21l.36.73a3.14,3.14,0,0,1,3.82,1.08Z"/><path class="cls-1" d="M492.72,91.83a5.93,5.93,0,0,0-3.27-2.46,5.87,5.87,0,0,0-4.07.39l.34.68a5.14,5.14,0,0,1,6.36,1.8Z"/><path class="cls-2" d="M391.2,564c-3.61,12.82-16.2,21.2-29,17.58L179.35,530c-12.82-3.62-20.85-17.81-17.23-30.63l18.9-67H163.58l-18.09,64.11a40.7,40.7,0,0,0,28,50.08l182.53,51.5a39.17,39.17,0,0,0,48.2-27l37.16-131.7,255.06-7H428.34Z"/><path class="cls-1" d="M504.82,70.92,322.16,19.38a40.57,40.57,0,0,0-49.93,28l-8.48,30.08A2.29,2.29,0,0,0,260.92,79l-4.35,15.42a2.29,2.29,0,0,0,1.58,2.82L253,115.59a2.28,2.28,0,0,0-2.82,1.58l-9.32,33a2.29,2.29,0,0,0,1.58,2.83l-3.11,11a2.28,2.28,0,0,0-2.82,1.58l-9.33,33a2.3,2.3,0,0,0,1.58,2.83L221,229.08,50.74,235.39H236.61l52.57-186.3c3.61-12.82,17.41-19.05,30.23-15.43l21.13,6c4.47,1.26,6.27,1.21,4.94,6.95a11.35,11.35,0,0,0,.94,8,16.53,16.53,0,0,0,5.64,6.17,21,21,0,0,0,5.58,2.76l4,1.13,88.63,25,4,1.13a21.42,21.42,0,0,0,6.24.43,16.56,16.56,0,0,0,8-2.18,10.92,10.92,0,0,0,4.92-6.16c1.87-5.58,3.42-4.75,7.88-3.49l20.94,5.91c12.83,3.62,19.65,15.66,16,28.48L483.93,235.39h18.23l1.4-4.94,7.4-26.21a2.3,2.3,0,0,0-1.59-2.83l-.73-.2,23.16-82.09A39.05,39.05,0,0,0,504.82,70.92Zm-62.55,1.77c-.6,2.12-3,3.06-5.35,2.39L380.61,59.19c-2.4-.68-3.92-2.71-3.32-4.84s3-3.06,5.35-2.38L439,67.86C441.35,68.53,442.87,70.56,442.27,72.69Z"/><polygon class="cls-3" points="571.84 259.63 538.79 259.63 529.3 284.45 562.71 284.45 571.84 259.63"/><polygon class="cls-3" points="339.98 382.1 372.36 382.1 381.22 357.53 349.18 357.53 339.98 382.1"/><path class="cls-1" d="M618.69,406.94h0a1.65,1.65,0,0,1-1.73-1.27l-16.8-148.92L579,361.26a1.68,1.68,0,0,1-1.74,1.18h0a1.67,1.67,0,0,1-1.73-1.2l-7.82-42.57-7,31.88a1.7,1.7,0,0,1-1.74,1.16h0a1.71,1.71,0,0,1-1.75-1.16l-6.08-28.39-6.74,9.1a1.87,1.87,0,0,1-1.52.69H34.47a1.44,1.44,0,1,1,0-2.8H541.86l8.68-11.73a2,2,0,0,1,1.85-.67,1.6,1.6,0,0,1,1.42,1.14L559,342l7.14-32.5a1.72,1.72,0,0,1,1.75-1.16h0a1.69,1.69,0,0,1,1.73,1.2l7.74,42.17,21.51-106.56a1.73,1.73,0,0,1,1.81-1.18,1.65,1.65,0,0,1,1.7,1.28L619,392.65l15-91.79a1.68,1.68,0,0,1,1.76-1.22h0a1.68,1.68,0,0,1,1.75,1.23l7.86,50.45L656.62,315A1.75,1.75,0,0,1,658.4,314a1.68,1.68,0,0,1,1.68,1.16l5.41,25.18,5.21-13.44a1.74,1.74,0,0,1,1.51-1,1.94,1.94,0,0,1,1.73.72l7,10,5.93-6.86a2,2,0,0,1,1.46-.61h6.36a1.44,1.44,0,1,1,0,2.8h-5.43l-7,8.13a2,2,0,0,1-1.55.61,1.88,1.88,0,0,1-1.46-.73l-6.39-9.13-6.18,15.92a1.79,1.79,0,0,1-1.81,1,1.68,1.68,0,0,1-1.62-1.17L658,322.24l-11.51,37.15a1.77,1.77,0,0,1-1.83,1.06,1.65,1.65,0,0,1-1.65-1.22l-7.32-47-15.26,93.5A1.69,1.69,0,0,1,618.69,406.94Z"/><path class="cls-2" d="M180.19,351.66,164,392.84l-11.92-41.18H27.75l10.44,9.86-20,51.7h72L94,403.36H47.06l6.17-16H96.78l3.7-9.78H57l6.24-16h46.68l3.5-9.33,9.72,9.33-20.21,51.7H128l13.56-36.33,10.19,36.33h29.42L204,351.66Z"/><polygon class="cls-2" points="265.42 401.72 229.56 401.72 246.23 357.53 282.26 357.53 277.31 370.38 305.61 365.86 312.73 347.11 209.16 347.11 219.14 356.49 199.09 412.14 287.99 412.14 296.5 389.74 268.54 393.56 265.42 401.72"/><path class="cls-2" d="M312.81,347.11l10.93,10.42L302.3,412.14h26.57l7.29-19.62h32.38l-7.12,19.62h25.44l24.83-65Zm59.55,35H340l9.2-24.57h32Z"/><polygon class="cls-2" points="448.23 357.53 486.25 357.53 481.31 370.38 509.61 365.86 516.9 347.11 411.94 347.11 422.7 357.53 411.59 385.83 474.79 385.83 468.89 401.72 431.13 401.72 435.29 390.87 407.86 395.47 401.26 412.14 491.38 412.14 505.79 375.41 441.2 375.41 448.23 357.53"/><path class="cls-2" d="M606.63,347.11h-21l-2.1,10.42h1.88l-8.86,24.57H544.15l9.2-24.57h17.79l-1.91-10.42h-4c-.56,3.53-1.42,7.66-6.23,7.51-4.82.14-5.68-4-6.21-7.51H517l10.93,10.42-21.44,54.61H533l7.29-19.62h32.38l-7.11,19.62H591l17.71-46.36Z"/><path class="cls-1" d="M322.66,164.94a23.56,23.56,0,0,1,10.42-2.51c1.92,0,3.84.27,5.81.43a5.25,5.25,0,0,0,.29-.53A10.38,10.38,0,0,1,345,156.5c1.77-.77,3.47-1.71,5.24-2.47a2.15,2.15,0,0,0,1.4-1.92c.3-2.13.71-4.24,1.07-6.35s.7-4.13,1.06-6.21l-5.95-1a23.51,23.51,0,0,1-15.54-9.67c-4.91-6.77-11.45-10.44-19.81-10.81a25.21,25.21,0,0,0-11.38,2.36l10.82,5a8.48,8.48,0,0,1,5.2,7.26c.31,3,.6,6,.82,9a8.19,8.19,0,0,1-3.51,7.58q-3.74,2.75-7.57,5.35a8.17,8.17,0,0,1-8.32.77c-2-.87-3.9-1.79-5.85-2.69l-4.15-1.88-.38.35a70.59,70.59,0,0,0,4.57,7.23A24.45,24.45,0,0,0,322.66,164.94Z"/><path class="cls-1" d="M424.72,176.23a24.26,24.26,0,0,1,9.44,8A24.47,24.47,0,0,0,455.53,195a24.77,24.77,0,0,0,9.69-2.33c-.56-.29-.93-.48-1.31-.66-3.19-1.48-6.4-2.93-9.58-4.43a8.27,8.27,0,0,1-5-7c-.33-3.07-.63-6.14-.86-9.22a8.11,8.11,0,0,1,3.43-7.49q3.74-2.76,7.56-5.37a8.33,8.33,0,0,1,8.56-.75l2.22,1,7.71,3.52a4.69,4.69,0,0,0-.14-.68,24.83,24.83,0,0,0-34.28-13.44,21.39,21.39,0,0,1-9.31,2.22c-2.13,0-4.26-.23-6.44-.36-.16,1.33-.27,2.7-.49,4q-1.71,10.22-3.5,20.43A1.35,1.35,0,0,0,424.72,176.23Z"/><path class="cls-1" d="M389.53,162.93l0,.12a7.5,7.5,0,1,0,14.77,2.56q1.56-8.93,3.05-17.88a8.53,8.53,0,0,0,.09-2.31,7.49,7.49,0,0,0-14.83-.38c-.57,3-1.05,6.09-1.57,9.13h0Z"/><path class="cls-1" d="M413.7,175a7.5,7.5,0,0,0,8.72-6.27c.48-2.66.92-5.33,1.37-8s.95-5.41,1.39-8.12a7.48,7.48,0,1,0-14.74-2.51q-1.4,8-2.74,16.11A7.47,7.47,0,0,0,413.7,175Z"/><path class="cls-1" d="M367.79,144.39c3.15-1.51,3.15-1.52,3.58-5a7.48,7.48,0,0,0-5.92-8.5,7.29,7.29,0,0,0-8.7,5.56c-1,4.64-1.65,9.36-2.5,14.31.6-.25,1-.4,1.36-.57Z"/><path class="cls-1" d="M389.28,143.66c.77-3.34.08-6-2.42-8.08a7.08,7.08,0,0,0-8.08-.91c-2.52,1.24-3.83,3.36-4.15,6.43C380.19,138.35,385,139.14,389.28,143.66Z"/><path class="cls-1" d="M381.24,168.41c3.24-1.22,5.18-4,5.1-8.65l-13.25,6.32A7,7,0,0,0,381.24,168.41Z"/><polygon class="cls-1" points="50.15 249.11 61.52 259.63 125.46 259.63 108 304.28 71.28 304.28 84.63 270.25 57.31 270.25 39.85 314.8 109.61 314.8 138.54 296.12 156.9 249.11 50.15 249.11"/><polygon class="cls-1" points="156.97 249.11 168.17 259.55 146.13 314.8 173.45 314.8 198.35 249.11 156.97 249.11"/><path class="cls-1" d="M396,249.11q3.35-19.59,6.67-39.18a6.46,6.46,0,0,1,2.34-4.28,42,42,0,0,0,13.21-17.77,41.54,41.54,0,0,0,2.68-10.64c-.32,0-.46-.09-.56-.05-.37.12-.72.28-1.08.43a10.8,10.8,0,0,1-11.35-1.75,7.42,7.42,0,0,0-7-1.2c-3.3,1-6.53,1.19-9.4-.77a13.64,13.64,0,0,0-6.1-2A10.41,10.41,0,0,0,381,172a8.48,8.48,0,0,1-6.86-.8c-2.08-1.29-4.34-1.47-6.6-1.88a1.44,1.44,0,0,0-1.78,1.06c-.54,1.37,0,2.44.9,3.51a83.43,83.43,0,0,1,6.46,8,73.12,73.12,0,0,1,4.32,8.46,1.63,1.63,0,0,1-.89,2.36,1.7,1.7,0,0,1-2.27-1.09c-.12-.27-.22-.56-.33-.84a42.2,42.2,0,0,0-9.5-14.26c-3.81-3.77-3-8.68,1.87-11,5.77-2.75,11.56-5.48,17.31-8.26a7.48,7.48,0,1,0-6.35-13.54Q361.2,151.3,345.18,159a7.23,7.23,0,0,0-4.28,7.32c.33,7.37.72,14.75,1.09,22.12a16.27,16.27,0,0,0,3.22,9.08,42,42,0,0,0,14,12.08c.61.33,1.23.61,1.84.92,1.13.57,1.55,1.47,1.14,2.39a1.76,1.76,0,0,1-2.63.69c-1.5-.74-3-1.58-4.42-2.38l-1.1-.59-6.56,38.47H198.61l11.11,10.52-11.47,28.6h65.2l-6.09,16h-39l4.3-11L194.4,298l-6.81,16.84h93l14.87-37.1H228.79L236,259.63h39.23l-5.11,13,29.2-4.57,7.4-18.63,11,10.21h63.95l-9.5,24.3H335.53l5.37-13.68H313.59L296.12,314.8h27.41l8-20.35h63.94l17.73-45.34Z"/><polygon class="cls-1" points="454.71 249.11 413.34 249.11 424.53 259.63 402.41 314.8 480.95 314.8 485.07 304.28 433.85 304.28 454.71 249.11"/><path class="cls-1" d="M688.25,249.11H662.46l-23.64,25.7-8.6-25.7H606.51l.87,7.69,3.49,2.83,10.57,34.3-7.66,19.62.14,1.25H628l2.34-14.31c.63-4.9,10.21-4.88,10.8,0l1.46,9.36,7.21-18.49h-.36Z"/><path class="cls-1" d="M512.55,259.63,490.43,314.8h27.41L525.36,295h33.4l-7,18.85a6.31,6.31,0,0,1,3.73,1h5.74c.87-3.77,1-9.61,6.63-9.33,5.71-.22,5.7,5.5,6.42,9.33h3.36c6.72-11.6,14.08-52.26,16.7-65.69H501.27Zm26.24,0h33.05l-9.14,24.82H529.3Z"/></svg>